<svg width="59" height="58" viewBox="0 0 59 58" fill="none" xmlns="http://www.w3.org/2000/svg">
<path d="M0.612793 29.142C0.612793 45.0445 13.486 57.9176 29.3904 57.9176C45.2916 57.9176 58.2933 45.0445 58.2933 29.142C58.2933 13.2395 45.2916 0.239868 29.3904 0.239868C13.486 0.239868 0.612793 13.2395 0.612793 29.142ZM6.16604 29.142C6.16604 16.0165 16.5146 5.28831 29.3904 5.28831C42.2603 5.28831 52.738 16.0165 52.738 29.142C52.738 42.2675 42.2603 52.8692 29.3904 52.8692C16.5146 52.8692 6.16604 42.2675 6.16604 29.142ZM15.884 43.4036H24.9687V33.5591H30.1482L35.5716 43.4036H45.4168L38.8534 31.7924C41.8847 30.5305 44.1515 27.1229 44.1515 23.3364C44.1515 16.6471 39.8616 13.4919 32.5403 13.4919H15.884V43.4036ZM34.939 23.4623C34.939 25.8603 33.43 26.8705 30.5239 26.8705H24.9687V20.5595H30.5239C33.43 20.5595 34.939 21.3173 34.939 23.4623Z" fill="white"/>
</svg>
